<svg xmlns="http://www.w3.org/2000/svg" viewBox="0 0 64 64" role="img" aria-label="Instagram">
  <defs>
    <radialGradient id="ig-a" cx="28%" cy="105%" r="90%">
      <stop offset="0" stop-color="#FEDA75"/>
      <stop offset=".25" stop-color="#FA7E1E"/>
      <stop offset=".5" stop-color="#D62976"/>
      <stop offset=".75" stop-color="#962FBF"/>
      <stop offset="1" stop-color="#4F5BD5"/>
    </radialGradient>
  </defs>
  <rect width="56" height="56" x="4" y="4" fill="url(#ig-a)" rx="14"/>
  <path fill="#fff" d="M32 19.4c4.1 0 4.59.02 6.21.09 1.5.07 2.32.32 2.86.53.72.28 1.23.62 1.77 1.16.54.54.88 1.05 1.16 1.77.21.54.46 1.36.53 2.86.07 1.62.09 2.11.09 6.21s-.02 4.59-.09 6.21c-.07 1.5-.32 2.32-.53 2.86-.28.72-.62 1.23-1.16 1.77-.54.54-1.05.88-1.77 1.16-.54.21-1.36.46-2.86.53-1.62.07-2.11.09-6.21.09s-4.59-.02-6.21-.09c-1.5-.07-2.32-.32-2.86-.53a4.77 4.77 0 0 1-1.77-1.16 4.77 4.77 0 0 1-1.16-1.77c-.21-.54-.46-1.36-.53-2.86-.07-1.62-.09-2.11-.09-6.21s.02-4.59.09-6.21c.07-1.5.32-2.32.53-2.86.28-.72.62-1.23 1.16-1.77.54-.54 1.05-.88 1.77-1.16.54-.21 1.36-.46 2.86-.53 1.62-.07 2.11-.09 6.21-.09Zm0-2.77c-4.17 0-4.69.02-6.34.09-1.64.07-2.76.34-3.74.72a7.54 7.54 0 0 0-2.73 1.78 7.54 7.54 0 0 0-1.78 2.73c-.38.98-.65 2.1-.72 3.74-.07 1.65-.09 2.17-.09 6.34s.02 4.69.09 6.34c.07 1.64.34 2.76.72 3.74a7.54 7.54 0 0 0 1.78 2.73 7.54 7.54 0 0 0 2.73 1.78c.98.38 2.1.65 3.74.72 1.65.07 2.17.09 6.34.09s4.69-.02 6.34-.09c1.64-.07 2.76-.34 3.74-.72a7.54 7.54 0 0 0 2.73-1.78 7.54 7.54 0 0 0 1.78-2.73c.38-.98.65-2.1.72-3.74.07-1.65.09-2.17.09-6.34s-.02-4.69-.09-6.34c-.07-1.64-.34-2.76-.72-3.74a7.54 7.54 0 0 0-1.78-2.73 7.54 7.54 0 0 0-2.73-1.78c-.98-.38-2.1-.65-3.74-.72-1.65-.07-2.17-.09-6.34-.09Z"/>
  <path fill="#fff" d="M32 24.11a7.89 7.89 0 1 0 0 15.78 7.89 7.89 0 0 0 0-15.78Zm0 13a5.11 5.11 0 1 1 0-10.22 5.11 5.11 0 0 1 0 10.22Z"/>
  <circle cx="40.2" cy="23.8" r="1.85" fill="#fff"/>
</svg>
