<svg xmlns="http://www.w3.org/2000/svg" viewBox="0 0 64 64" role="img" aria-label="WeChat">
  <path fill="#07C160" d="M32 4C16.54 4 4 16.54 4 32s12.54 28 28 28 28-12.54 28-28S47.46 4 32 4Z"/>
  <path fill="#fff" d="M28.4 20.2c-7.5 0-13.6 4.74-13.6 10.58 0 3.32 1.99 6.26 5.09 8.21l-1.27 3.81 4.47-2.23c1.61.5 3.39.79 5.31.79.47 0 .94-.02 1.4-.06-.55-1.15-.85-2.42-.85-3.76 0-5.63 5.29-10.2 11.82-10.2.3 0 .6.01.89.03-1.73-4.17-6.95-7.17-13.26-7.17Zm-4.66 5.24a1.76 1.76 0 1 1 0 3.52 1.76 1.76 0 0 1 0-3.52Zm9.31 0a1.76 1.76 0 1 1 0 3.52 1.76 1.76 0 0 1 0-3.52Z"/>
  <path fill="#fff" d="M41.1 29.96c-5.74 0-10.39 3.63-10.39 8.11s4.65 8.11 10.39 8.11c1.46 0 2.85-.23 4.11-.65l3.48 1.74-.98-2.98c2.32-1.5 3.78-3.72 3.78-6.22 0-4.48-4.65-8.11-10.39-8.11Zm-3.47 4.33a1.35 1.35 0 1 1 0 2.7 1.35 1.35 0 0 1 0-2.7Zm6.94 0a1.35 1.35 0 1 1 0 2.7 1.35 1.35 0 0 1 0-2.7Z"/>
</svg>
