<svg xmlns="http://www.w3.org/2000/svg" viewBox="0 0 64 64" role="img" aria-label="WhatsApp">
  <path fill="#25D366" d="M32 4C16.54 4 4 16.09 4 31c0 5.15 1.52 9.96 4.15 14.05L5.5 59.5l14.85-3.89A28.9 28.9 0 0 0 32 58c15.46 0 28-12.09 28-27S47.46 4 32 4Z"/>
  <path fill="#fff" d="M46.58 39.74c-.62 1.72-3.06 3.15-4.86 3.57-1.29.3-2.98.54-8.66-1.81-7.27-3.02-11.95-10.42-12.31-10.9-.35-.48-2.94-3.91-2.94-7.46 0-3.55 1.86-5.29 2.52-6.02.66-.73 1.44-.91 1.92-.91h1.38c.44.02 1.03-.17 1.61 1.23.62 1.49 2.11 5.16 2.3 5.53.19.37.31.81.06 1.29-.25.48-.37.78-.74 1.2-.37.42-.78.94-1.12 1.26-.37.37-.76.77-.33 1.51.43.74 1.91 3.15 4.1 5.1 2.82 2.51 5.2 3.29 5.94 3.66.74.37 1.17.31 1.6-.19.43-.5 1.84-2.15 2.33-2.89.5-.74.99-.62 1.67-.37.68.25 4.35 2.05 5.09 2.42.74.37 1.23.56 1.42.87.19.31.19 1.79-.43 3.51Z"/>
</svg>
